<svg width="48" height="44" viewBox="0 0 48 44" fill="none" xmlns="http://www.w3.org/2000/svg">
<path d="M33.2015 20.676C32.3392 20.686 31.5572 20.681 30.8303 20.456C30.1736 18.4555 28.2937 17.0052 26.0679 17.0052C23.3007 17.0052 21.0548 19.2457 21.0548 22.0063C21.0548 24.7669 23.3007 27.0074 26.0679 27.0074C28.2636 27.0074 30.1234 25.5971 30.8002 23.6417C31.8981 23.2666 33.0862 23.3466 34.3294 23.3516C38.8111 23.3616 43.2977 23.3566 47.8446 23.3566C47.9148 22.4364 48.015 21.8663 47.995 21.2961C47.619 10.5237 39.4277 1.65168 28.5143 0.181347C18.3277 -1.19397 8.13117 5.50756 4.91781 15.5748C4.75238 16.09 4.48668 16.6001 4.16585 17.0852C1.8047 17.4853 0 19.5307 0 22.0063C0 24.5019 1.82976 26.5623 4.226 26.9374C4.4566 27.2675 4.64209 27.6076 4.75739 27.9627C7.7201 36.8547 13.7709 42.1659 23.0099 43.7513C31.6374 45.2366 42.0746 39.8054 45.0874 32.2736C42.2049 30.3882 39.2923 28.4828 36.3948 26.5873C30.349 33.664 23.8972 34.9042 18.5734 30.0931C13.8461 25.8222 13.5854 18.5505 18.0871 14.0445C23.1553 8.97334 31.0057 9.76353 35.8133 16.035C36.3998 15.6699 37.0014 15.2948 37.5979 14.9197C33.5423 7.96812 24.8146 6.08269 18.2074 10.6037C11.6604 15.0847 10.362 24.3018 15.345 30.4132C19.6812 35.7244 29.1359 38.6051 37.1367 30.0531C38.6456 31.0784 40.1796 32.1186 41.859 33.2639C36.6555 39.6303 30.2788 42.476 22.4485 40.9956C14.3574 39.4653 9.33431 34.3741 7.06841 26.5623C8.81295 25.7822 10.0261 24.0368 10.0261 22.0063C10.0261 19.9959 8.833 18.2655 7.11854 17.4703C10.1514 6.95289 19.576 0.976527 29.953 3.02199C38.39 4.68737 45.8644 13.3693 44.9019 20.656C41.0268 20.656 37.1167 20.621 33.2015 20.676ZM26.0679 24.0068C24.96 24.0068 24.0627 23.1116 24.0627 22.0063C24.0627 20.9011 24.96 20.0059 26.0679 20.0059C27.1758 20.0059 28.0731 20.9011 28.0731 22.0063C28.0731 23.1116 27.1758 24.0068 26.0679 24.0068ZM5.01305 24.0068C3.90517 24.0068 3.00783 23.1116 3.00783 22.0063C3.00783 20.9011 3.90517 20.0059 5.01305 20.0059C6.12094 20.0059 7.01828 20.9011 7.01828 22.0063C7.01828 23.1116 6.12094 24.0068 5.01305 24.0068Z" fill="white"/>
</svg>
